<svg width="3873" height="580" viewBox="0 0 3873 580" fill="none" xmlns="http://www.w3.org/2000/svg">
<path d="M997.64 460.6C970.253 460.6 945.813 454.533 924.32 442.4C903.173 429.92 886.533 412.76 874.4 390.92C862.267 369.08 856.2 344.12 856.2 316.04C856.2 287.613 861.92 262.653 873.36 241.16C884.8 219.32 900.573 202.16 920.68 189.68C940.787 177.2 963.84 170.96 989.84 170.96C1015.49 170.96 1038.2 177.027 1057.96 189.16C1077.72 200.947 1093.15 217.413 1104.24 238.56C1115.33 259.36 1120.88 283.453 1120.88 310.84C1120.88 315.347 1119.49 318.987 1116.72 321.76C1113.95 324.187 1110.31 325.4 1105.8 325.4H877V298.36H1114.12L1091.24 315.52C1091.93 292.987 1088.12 273.053 1079.8 255.72C1071.48 238.387 1059.52 224.867 1043.92 215.16C1028.67 205.107 1010.64 200.08 989.84 200.08C970.08 200.08 952.4 205.107 936.8 215.16C921.547 224.867 909.413 238.387 900.4 255.72C891.733 273.053 887.4 293.16 887.4 316.04C887.4 338.573 892.08 358.507 901.44 375.84C910.8 393.173 923.8 406.867 940.44 416.92C957.08 426.627 976.147 431.48 997.64 431.48C1011.16 431.48 1024.68 429.227 1038.2 424.72C1052.07 419.867 1062.99 413.627 1070.96 406C1073.73 403.227 1077.03 401.84 1080.84 401.84C1085 401.493 1088.47 402.533 1091.24 404.96C1095.05 408.08 1096.96 411.547 1096.96 415.36C1097.31 419.173 1095.75 422.64 1092.28 425.76C1081.19 435.813 1066.63 444.133 1048.6 450.72C1030.92 457.307 1013.93 460.6 997.64 460.6ZM1214.68 458C1210.17 458 1206.36 456.613 1203.24 453.84C1200.46 450.72 1199.08 446.907 1199.08 442.4V189.16C1199.08 184.307 1200.46 180.493 1203.24 177.72C1206.36 174.947 1210.17 173.56 1214.68 173.56C1219.53 173.56 1223.34 174.947 1226.12 177.72C1228.89 180.493 1230.28 184.307 1230.28 189.16V442.4C1230.28 446.907 1228.89 450.72 1226.12 453.84C1223.34 456.613 1219.53 458 1214.68 458ZM1214.16 113.76C1207.57 113.76 1201.85 111.507 1197 107C1192.49 102.147 1190.24 96.2533 1190.24 89.32C1190.24 81.3466 1192.66 75.4533 1197.52 71.64C1202.72 67.48 1208.44 65.4 1214.68 65.4C1220.57 65.4 1225.94 67.48 1230.8 71.64C1236 75.4533 1238.6 81.3466 1238.6 89.32C1238.6 96.2533 1236.17 102.147 1231.32 107C1226.81 111.507 1221.09 113.76 1214.16 113.76ZM1464.42 461.12C1435.99 461.12 1410.86 454.88 1389.02 442.4C1367.18 429.92 1350.02 412.76 1337.54 390.92C1325.06 369.08 1318.82 344.12 1318.82 316.04C1318.82 287.613 1325.23 262.48 1338.06 240.64C1350.88 218.8 1368.22 201.64 1390.06 189.16C1412.24 176.68 1437.03 170.44 1464.42 170.44C1492.84 170.44 1517.8 176.68 1539.3 189.16C1561.14 201.64 1578.3 218.8 1590.78 240.64C1603.26 262.48 1609.5 287.613 1609.5 316.04L1591.3 336.84C1591.3 361.107 1585.92 382.6 1575.18 401.32C1564.43 420.04 1549.52 434.773 1530.46 445.52C1511.39 455.92 1489.38 461.12 1464.42 461.12ZM1466.5 566.68C1437.72 566.68 1413.11 561.307 1392.66 550.56C1372.55 539.813 1355.91 526.12 1342.74 509.48C1339.96 506.013 1338.58 502.373 1338.58 498.56C1338.58 494.747 1340.31 491.627 1343.78 489.2C1347.24 486.427 1351.23 485.387 1355.74 486.08C1360.59 486.773 1364.23 489.027 1366.66 492.84C1377.4 505.667 1391.1 516.24 1407.74 524.56C1424.38 533.227 1443.96 537.56 1466.5 537.56C1487.99 537.56 1507.06 532.36 1523.7 521.96C1540.68 511.56 1554.03 497.173 1563.74 478.8C1573.44 460.773 1578.3 440.493 1578.3 417.96V335.28L1592.34 316.04H1609.5V417.96C1609.5 446.04 1603.26 471.347 1590.78 493.88C1578.3 516.413 1561.31 534.093 1539.82 546.92C1518.32 560.093 1493.88 566.68 1466.5 566.68ZM1464.42 432C1486.6 432 1506.19 427.147 1523.18 417.44C1540.51 407.387 1554.03 393.693 1563.74 376.36C1573.44 358.68 1578.3 338.573 1578.3 316.04C1578.3 293.16 1573.44 273.053 1563.74 255.72C1554.03 238.04 1540.51 224.347 1523.18 214.64C1506.19 204.587 1486.6 199.56 1464.42 199.56C1442.23 199.56 1422.47 204.587 1405.14 214.64C1387.8 224.347 1374.28 238.04 1364.58 255.72C1354.87 273.053 1350.02 293.16 1350.02 316.04C1350.02 338.573 1354.87 358.68 1364.58 376.36C1374.28 393.693 1387.8 407.387 1405.14 417.44C1422.47 427.147 1442.23 432 1464.42 432ZM1813.19 460.6C1785.8 460.6 1761.36 454.533 1739.87 442.4C1718.72 429.92 1702.08 412.76 1689.95 390.92C1677.81 369.08 1671.75 344.12 1671.75 316.04C1671.75 287.613 1677.47 262.653 1688.91 241.16C1700.35 219.32 1716.12 202.16 1736.23 189.68C1756.33 177.2 1779.39 170.96 1805.39 170.96C1831.04 170.96 1853.75 177.027 1873.51 189.16C1893.27 200.947 1908.69 217.413 1919.79 238.56C1930.88 259.36 1936.43 283.453 1936.43 310.84C1936.43 315.347 1935.04 318.987 1932.27 321.76C1929.49 324.187 1925.85 325.4 1921.35 325.4H1692.55V298.36H1929.67L1906.79 315.52C1907.48 292.987 1903.67 273.053 1895.35 255.72C1887.03 238.387 1875.07 224.867 1859.47 215.16C1844.21 205.107 1826.19 200.08 1805.39 200.08C1785.63 200.08 1767.95 205.107 1752.35 215.16C1737.09 224.867 1724.96 238.387 1715.95 255.72C1707.28 273.053 1702.95 293.16 1702.95 316.04C1702.95 338.573 1707.63 358.507 1716.99 375.84C1726.35 393.173 1739.35 406.867 1755.99 416.92C1772.63 426.627 1791.69 431.48 1813.19 431.48C1826.71 431.48 1840.23 429.227 1853.75 424.72C1867.61 419.867 1878.53 413.627 1886.51 406C1889.28 403.227 1892.57 401.84 1896.39 401.84C1900.55 401.493 1904.01 402.533 1906.79 404.96C1910.6 408.08 1912.51 411.547 1912.51 415.36C1912.85 419.173 1911.29 422.64 1907.83 425.76C1896.73 435.813 1882.17 444.133 1864.15 450.72C1846.47 457.307 1829.48 460.6 1813.19 460.6ZM2250.18 458C2245.68 458 2241.86 456.613 2238.74 453.84C2235.97 450.72 2234.58 446.907 2234.58 442.4V302.52C2234.58 279.64 2230.08 260.747 2221.06 245.84C2212.4 230.933 2200.44 219.84 2185.18 212.56C2170.28 204.933 2153.29 201.12 2134.22 201.12C2115.5 201.12 2098.69 204.76 2083.78 212.04C2068.88 218.973 2057.09 228.68 2048.42 241.16C2039.76 253.64 2035.42 267.68 2035.42 283.28H2009.42C2010.81 261.787 2017.22 242.547 2028.66 225.56C2040.1 208.227 2055.01 194.707 2073.38 185C2091.76 174.947 2112.04 169.92 2134.22 169.92C2159.18 169.92 2181.54 175.12 2201.3 185.52C2221.41 195.573 2237.18 210.48 2248.62 230.24C2260.06 249.653 2265.78 273.747 2265.78 302.52V442.4C2265.78 446.907 2264.22 450.72 2261.1 453.84C2258.33 456.613 2254.69 458 2250.18 458ZM2019.82 458C2015.32 458 2011.5 456.613 2008.38 453.84C2005.61 450.72 2004.22 446.907 2004.22 442.4V189.16C2004.22 184.307 2005.61 180.493 2008.38 177.72C2011.5 174.947 2015.32 173.56 2019.82 173.56C2024.68 173.56 2028.49 174.947 2031.26 177.72C2034.04 180.493 2035.42 184.307 2035.42 189.16V442.4C2035.42 446.907 2034.04 450.72 2031.26 453.84C2028.49 456.613 2024.68 458 2019.82 458Z" fill="#7BD7FE"/>
<path d="M2457.58 460.08C2433.32 460.08 2410.78 456.44 2389.98 449.16C2369.53 441.533 2353.58 432 2342.14 420.56C2336.94 415.013 2334.69 408.773 2335.38 401.84C2336.42 394.56 2339.89 388.667 2345.78 384.16C2352.72 378.613 2359.48 376.36 2366.06 377.4C2373 378.093 2378.89 381.04 2383.74 386.24C2389.64 392.827 2399 399.067 2411.82 404.96C2425 410.507 2439.56 413.28 2455.5 413.28C2475.61 413.28 2490.86 409.987 2501.26 403.4C2512.01 396.813 2517.56 388.32 2517.9 377.92C2518.25 367.52 2513.22 358.507 2502.82 350.88C2492.77 343.253 2474.22 337.013 2447.18 332.16C2412.17 325.227 2386.69 314.827 2370.74 300.96C2355.14 287.093 2347.34 270.107 2347.34 250C2347.34 232.32 2352.54 217.76 2362.94 206.32C2373.34 194.533 2386.69 185.867 2402.98 180.32C2419.28 174.427 2436.26 171.48 2453.94 171.48C2476.82 171.48 2497.1 175.12 2514.78 182.4C2532.46 189.68 2546.5 199.733 2556.9 212.56C2561.76 218.107 2564.01 224 2563.66 230.24C2563.32 236.133 2560.37 241.16 2554.82 245.32C2549.28 249.133 2542.69 250.347 2535.06 248.96C2527.44 247.573 2521.02 244.453 2515.82 239.6C2507.16 231.28 2497.8 225.56 2487.74 222.44C2477.69 219.32 2466.08 217.76 2452.9 217.76C2437.65 217.76 2424.65 220.36 2413.9 225.56C2403.5 230.76 2398.3 238.387 2398.3 248.44C2398.3 254.68 2399.86 260.4 2402.98 265.6C2406.45 270.453 2413.04 274.96 2422.74 279.12C2432.45 282.933 2446.66 286.747 2465.38 290.56C2491.38 295.76 2511.84 302.347 2526.74 310.32C2542 318.293 2552.92 327.653 2559.5 338.4C2566.09 348.8 2569.38 360.933 2569.38 374.8C2569.38 390.747 2565.05 405.133 2556.38 417.96C2548.06 430.787 2535.58 441.013 2518.94 448.64C2502.65 456.267 2482.2 460.08 2457.58 460.08ZM2770.09 460.08C2741.32 460.08 2715.66 454.013 2693.13 441.88C2670.94 429.4 2653.44 412.413 2640.61 390.92C2628.13 369.08 2621.89 344.12 2621.89 316.04C2621.89 287.613 2627.78 262.653 2639.57 241.16C2651.7 219.32 2668.34 202.333 2689.49 190.2C2710.64 177.72 2734.9 171.48 2762.29 171.48C2789.33 171.48 2812.56 177.547 2831.97 189.68C2851.38 201.467 2866.12 217.933 2876.17 239.08C2886.57 259.88 2891.77 283.973 2891.77 311.36C2891.77 317.947 2889.52 323.493 2885.01 328C2880.5 332.16 2874.78 334.24 2867.85 334.24H2658.29V292.64H2866.29L2844.97 307.2C2844.62 289.867 2841.16 274.44 2834.57 260.92C2827.98 247.053 2818.62 236.133 2806.49 228.16C2794.36 220.187 2779.62 216.2 2762.29 216.2C2742.53 216.2 2725.54 220.533 2711.33 229.2C2697.46 237.867 2686.89 249.827 2679.61 265.08C2672.33 279.987 2668.69 296.973 2668.69 316.04C2668.69 335.107 2673.02 352.093 2681.69 367C2690.36 381.907 2702.32 393.693 2717.57 402.36C2732.82 411.027 2750.33 415.36 2770.09 415.36C2780.84 415.36 2791.76 413.453 2802.85 409.64C2814.29 405.48 2823.48 400.8 2830.41 395.6C2835.61 391.787 2841.16 389.88 2847.05 389.88C2853.29 389.533 2858.66 391.267 2863.17 395.08C2869.06 400.28 2872.18 406 2872.53 412.24C2872.88 418.48 2870.1 423.853 2864.21 428.36C2852.42 437.72 2837.69 445.347 2820.01 451.24C2802.68 457.133 2786.04 460.08 2770.09 460.08ZM3199.66 458.52C3192.03 458.52 3185.62 456.093 3180.42 451.24C3175.56 446.04 3173.14 439.627 3173.14 432V304.08C3173.14 284.32 3169.5 268.2 3162.22 255.72C3154.94 243.24 3145.06 234.053 3132.58 228.16C3120.44 221.92 3106.4 218.8 3090.46 218.8C3075.9 218.8 3062.72 221.747 3050.94 227.64C3039.15 233.533 3029.79 241.507 3022.86 251.56C3015.92 261.267 3012.46 272.533 3012.46 285.36H2979.7C2979.7 263.52 2984.9 244.107 2995.3 227.12C3006.04 209.787 3020.6 196.093 3038.98 186.04C3057.35 175.987 3077.98 170.96 3100.86 170.96C3124.78 170.96 3146.1 176.16 3164.82 186.56C3183.88 196.613 3198.79 211.52 3209.54 231.28C3220.63 251.04 3226.18 275.307 3226.18 304.08V432C3226.18 439.627 3223.58 446.04 3218.38 451.24C3213.52 456.093 3207.28 458.52 3199.66 458.52ZM2985.94 458.52C2978.31 458.52 2971.9 456.093 2966.7 451.24C2961.84 446.04 2959.42 439.627 2959.42 432V200.08C2959.42 192.107 2961.84 185.693 2966.7 180.84C2971.9 175.987 2978.31 173.56 2985.94 173.56C2993.91 173.56 3000.32 175.987 3005.18 180.84C3010.03 185.693 3012.46 192.107 3012.46 200.08V432C3012.46 439.627 3010.03 446.04 3005.18 451.24C3000.32 456.093 2993.91 458.52 2985.94 458.52ZM3417.35 460.08C3393.08 460.08 3370.55 456.44 3349.75 449.16C3329.3 441.533 3313.35 432 3301.91 420.56C3296.71 415.013 3294.46 408.773 3295.15 401.84C3296.19 394.56 3299.66 388.667 3305.55 384.16C3312.48 378.613 3319.24 376.36 3325.83 377.4C3332.76 378.093 3338.66 381.04 3343.51 386.24C3349.4 392.827 3358.76 399.067 3371.59 404.96C3384.76 410.507 3399.32 413.28 3415.27 413.28C3435.38 413.28 3450.63 409.987 3461.03 403.4C3471.78 396.813 3477.32 388.32 3477.67 377.92C3478.02 367.52 3472.99 358.507 3462.59 350.88C3452.54 343.253 3433.99 337.013 3406.95 332.16C3371.94 325.227 3346.46 314.827 3330.51 300.96C3314.91 287.093 3307.11 270.107 3307.11 250C3307.11 232.32 3312.31 217.76 3322.71 206.32C3333.11 194.533 3346.46 185.867 3362.75 180.32C3379.04 174.427 3396.03 171.48 3413.71 171.48C3436.59 171.48 3456.87 175.12 3474.55 182.4C3492.23 189.68 3506.27 199.733 3516.67 212.56C3521.52 218.107 3523.78 224 3523.43 230.24C3523.08 236.133 3520.14 241.16 3514.59 245.32C3509.04 249.133 3502.46 250.347 3494.83 248.96C3487.2 247.573 3480.79 244.453 3475.59 239.6C3466.92 231.28 3457.56 225.56 3447.51 222.44C3437.46 219.32 3425.84 217.76 3412.67 217.76C3397.42 217.76 3384.42 220.36 3373.67 225.56C3363.27 230.76 3358.07 238.387 3358.07 248.44C3358.07 254.68 3359.63 260.4 3362.75 265.6C3366.22 270.453 3372.8 274.96 3382.51 279.12C3392.22 282.933 3406.43 286.747 3425.15 290.56C3451.15 295.76 3471.6 302.347 3486.51 310.32C3501.76 318.293 3512.68 327.653 3519.27 338.4C3525.86 348.8 3529.15 360.933 3529.15 374.8C3529.15 390.747 3524.82 405.133 3516.15 417.96C3507.83 430.787 3495.35 441.013 3478.71 448.64C3462.42 456.267 3441.96 460.08 3417.35 460.08ZM3729.85 460.08C3701.08 460.08 3675.43 454.013 3652.89 441.88C3630.71 429.4 3613.2 412.413 3600.37 390.92C3587.89 369.08 3581.65 344.12 3581.65 316.04C3581.65 287.613 3587.55 262.653 3599.33 241.16C3611.47 219.32 3628.11 202.333 3649.25 190.2C3670.4 177.72 3694.67 171.48 3722.05 171.48C3749.09 171.48 3772.32 177.547 3791.73 189.68C3811.15 201.467 3825.88 217.933 3835.93 239.08C3846.33 259.88 3851.53 283.973 3851.53 311.36C3851.53 317.947 3849.28 323.493 3844.77 328C3840.27 332.16 3834.55 334.24 3827.61 334.24H3618.05V292.64H3826.05L3804.73 307.2C3804.39 289.867 3800.92 274.44 3794.33 260.92C3787.75 247.053 3778.39 236.133 3766.25 228.16C3754.12 220.187 3739.39 216.2 3722.05 216.2C3702.29 216.2 3685.31 220.533 3671.09 229.2C3657.23 237.867 3646.65 249.827 3639.37 265.08C3632.09 279.987 3628.45 296.973 3628.45 316.04C3628.45 335.107 3632.79 352.093 3641.45 367C3650.12 381.907 3662.08 393.693 3677.33 402.36C3692.59 411.027 3710.09 415.36 3729.85 415.36C3740.6 415.36 3751.52 413.453 3762.61 409.64C3774.05 405.48 3783.24 400.8 3790.17 395.6C3795.37 391.787 3800.92 389.88 3806.81 389.88C3813.05 389.533 3818.43 391.267 3822.93 395.08C3828.83 400.28 3831.95 406 3832.29 412.24C3832.64 418.48 3829.87 423.853 3823.97 428.36C3812.19 437.72 3797.45 445.347 3779.77 451.24C3762.44 457.133 3745.8 460.08 3729.85 460.08Z" fill="#577DCD"/>
<path fill-rule="evenodd" clip-rule="evenodd" d="M54.5879 243.984C33.0411 268.383 14.6125 295.602 0 325.067C14.4885 354.285 32.7426 381.297 54.0598 405.54C46.8224 380.163 42.8685 353.398 42.8685 325.692C42.8685 297.311 47.0062 269.913 54.5879 243.984Z" fill="url(#paint0_linear_4670_1828)"/>
<path fill-rule="evenodd" clip-rule="evenodd" d="M613.114 404.905C634.183 380.829 652.24 354.046 666.6 325.09C652.121 295.891 633.885 268.897 612.586 244.664C620.044 270.404 624.117 297.577 624.117 325.715C624.117 353.182 620.232 379.721 613.114 404.905Z" fill="url(#paint1_linear_4670_1828)"/>
<path fill-rule="evenodd" clip-rule="evenodd" d="M562.61 197.32C541.513 180.764 518.561 166.472 494.148 154.734C539.658 197.545 568.12 258.286 568.12 325.707C568.12 391.828 540.75 451.517 496.78 494.176C520.724 482.429 543.226 468.193 563.937 451.783C584.441 414.356 596.119 371.398 596.119 325.707C596.119 279.065 583.918 235.294 562.61 197.32Z" fill="url(#paint2_linear_4670_1828)"/>
<path fill-rule="evenodd" clip-rule="evenodd" d="M98.8583 325.7C98.8583 258.086 127.477 197.189 173.216 154.359C148.781 166.042 125.806 180.283 104.672 196.789C83.1804 234.882 70.8594 278.841 70.8594 325.7C70.8594 371.639 82.6752 414.799 103.386 452.368C124.111 468.709 146.636 482.854 170.585 494.536C126.389 451.854 98.8583 392.009 98.8583 325.7Z" fill="url(#paint3_linear_4670_1828)"/>
<path fill-rule="evenodd" clip-rule="evenodd" d="M154.874 325.704C154.874 227.017 234.848 147.009 333.503 147.009C432.158 147.009 512.132 227.017 512.132 325.704C512.132 424.396 432.158 504.4 333.503 504.4C234.848 504.4 154.874 424.396 154.874 325.704ZM354.71 531.334C458.867 520.708 540.131 432.702 540.131 325.704C540.131 211.545 447.62 119 333.503 119C219.386 119 126.875 211.545 126.875 325.704C126.875 432.964 208.543 521.126 313.063 531.394C319.772 531.757 326.509 532 333.31 532C340.497 532 347.624 531.734 354.71 531.334Z" fill="url(#paint4_linear_4670_1828)"/>
<path fill-rule="evenodd" clip-rule="evenodd" d="M333.497 448.378C265.771 448.378 210.866 393.458 210.866 325.702C210.866 257.95 265.771 203.025 333.497 203.025C401.224 203.025 456.129 257.95 456.129 325.702C456.129 393.458 401.224 448.378 333.497 448.378ZM333.497 175.016C250.309 175.016 182.867 242.482 182.867 325.702C182.867 408.925 250.309 476.387 333.497 476.387C416.69 476.387 484.127 408.925 484.127 325.702C484.127 242.482 416.69 175.016 333.497 175.016Z" fill="url(#paint5_linear_4670_1828)"/>
<path fill-rule="evenodd" clip-rule="evenodd" d="M397.664 307.965C399.225 313.624 400.125 319.555 400.125 325.706C400.125 362.522 370.294 392.364 333.492 392.364C296.694 392.364 266.858 362.522 266.858 325.706C266.858 288.895 296.694 259.053 333.492 259.053C342.672 259.053 351.415 260.909 359.374 264.267C360.88 254.468 366.133 245.905 373.646 240.08C361.436 234.342 347.87 231.039 333.492 231.039C281.227 231.039 238.859 273.427 238.859 325.706C238.859 377.99 281.227 420.374 333.492 420.374C385.756 420.374 428.124 377.99 428.124 325.706C428.124 315.655 426.526 305.98 423.624 296.889C416.942 303.568 407.78 307.744 397.664 307.965Z" fill="url(#paint6_linear_4670_1828)"/>
<path d="M377.281 270.064C377.281 259.264 386.039 250.508 396.835 250.508C407.631 250.508 416.384 259.264 416.384 270.064C416.384 280.865 407.631 289.621 396.835 289.621C386.039 289.621 377.281 280.865 377.281 270.064Z" fill="white"/>
<defs>
<linearGradient id="paint0_linear_4670_1828" x1="25.3078" y1="501.557" x2="29.8697" y2="141.299" gradientUnits="userSpaceOnUse">
<stop stop-color="#1D4187"/>
<stop offset="1" stop-color="#567CCC"/>
</linearGradient>
<linearGradient id="paint1_linear_4670_1828" x1="636.75" y1="509.326" x2="641.312" y2="149.067" gradientUnits="userSpaceOnUse">
<stop stop-color="#1D4187"/>
<stop offset="1" stop-color="#567CCC"/>
</linearGradient>
<linearGradient id="paint2_linear_4670_1828" x1="541.756" y1="508.114" x2="546.318" y2="147.856" gradientUnits="userSpaceOnUse">
<stop stop-color="#1D4187"/>
<stop offset="1" stop-color="#567CCC"/>
</linearGradient>
<linearGradient id="paint3_linear_4670_1828" x1="119.542" y1="502.759" x2="124.104" y2="142.501" gradientUnits="userSpaceOnUse">
<stop stop-color="#1D4187"/>
<stop offset="1" stop-color="#567CCC"/>
</linearGradient>
<linearGradient id="paint4_linear_4670_1828" x1="331.23" y1="505.447" x2="335.792" y2="145.189" gradientUnits="userSpaceOnUse">
<stop stop-color="#1D4187"/>
<stop offset="1" stop-color="#567CCC"/>
</linearGradient>
<linearGradient id="paint5_linear_4670_1828" x1="330.531" y1="471.784" x2="336.233" y2="191.33" gradientUnits="userSpaceOnUse">
<stop stop-color="#5DACCC"/>
<stop offset="0.5" stop-color="#75D5FD"/>
<stop offset="1" stop-color="#93DFFF"/>
</linearGradient>
<linearGradient id="paint6_linear_4670_1828" x1="330.525" y1="471.789" x2="336.227" y2="191.335" gradientUnits="userSpaceOnUse">
<stop stop-color="#5DACCC"/>
<stop offset="0.5" stop-color="#75D5FD"/>
<stop offset="1" stop-color="#93DFFF"/>
</linearGradient>
</defs>
</svg>
